<svg xmlns="http://www.w3.org/2000/svg" xmlns:xlink="http://www.w3.org/1999/xlink" width="500" zoomAndPan="magnify" viewBox="0 0 375 374.999991" height="500" preserveAspectRatio="xMidYMid meet" version="1.0"><defs><g/><clipPath id="38bb5cc415"><path d="M 79.886719 128.886719 L 96.328125 128.886719 L 96.328125 145.328125 L 79.886719 145.328125 Z M 79.886719 128.886719 " clip-rule="nonzero"/></clipPath><clipPath id="a23f696804"><path d="M 88.105469 128.886719 C 83.566406 128.886719 79.886719 132.566406 79.886719 137.109375 C 79.886719 141.648438 83.566406 145.328125 88.105469 145.328125 C 92.644531 145.328125 96.328125 141.648438 96.328125 137.109375 C 96.328125 132.566406 92.644531 128.886719 88.105469 128.886719 Z M 88.105469 128.886719 " clip-rule="nonzero"/></clipPath><clipPath id="dce9be61a1"><path d="M 273.941406 116 L 337.691406 116 L 337.691406 179.484375 L 273.941406 179.484375 Z M 273.941406 116 " clip-rule="nonzero"/></clipPath><clipPath id="112133f52e"><path d="M 273.941406 116 L 324 116 L 324 179.484375 L 273.941406 179.484375 Z M 273.941406 116 " clip-rule="nonzero"/></clipPath><clipPath id="ca5bce6255"><path d="M 274 109.734375 L 318 109.734375 L 318 150 L 274 150 Z M 274 109.734375 " clip-rule="nonzero"/></clipPath><clipPath id="72d90d102e"><path d="M 320 136 L 337.691406 136 L 337.691406 176 L 320 176 Z M 320 136 " clip-rule="nonzero"/></clipPath></defs><rect x="-37.5" width="450" fill="#ffffff" y="-37.499999" height="449.999989" fill-opacity="1"/><rect x="-37.5" width="450" fill="#ffffff" y="-37.499999" height="449.999989" fill-opacity="1"/><g clip-path="url(#38bb5cc415)"><g clip-path="url(#a23f696804)"><path fill="#ffffff" d="M 79.886719 128.886719 L 96.328125 128.886719 L 96.328125 145.328125 L 79.886719 145.328125 Z M 79.886719 128.886719 " fill-opacity="1" fill-rule="nonzero"/></g></g><g clip-path="url(#dce9be61a1)"><path fill="#db3131" d="M 316.34375 117.996094 C 309.570312 114.542969 293.621094 119.242188 286.675781 123.890625 C 281.5625 127.316406 279.964844 129.167969 279.480469 129.898438 L 279.425781 129.921875 C 277.636719 132.546875 276.277344 135.378906 275.34375 138.421875 C 274.410156 141.464844 273.949219 144.574219 273.953125 147.757812 C 273.953125 165.230469 288.199219 179.445312 305.707031 179.445312 C 307.769531 179.453125 309.816406 179.257812 311.839844 178.855469 C 313.863281 178.453125 315.828125 177.851562 317.734375 177.054688 C 319.640625 176.257812 321.449219 175.28125 323.160156 174.121094 C 324.871094 172.960938 326.453125 171.644531 327.902344 170.167969 C 333.792969 164.195312 337.035156 156.234375 337.035156 147.757812 C 337.035156 146.144531 336.914062 144.539062 336.667969 142.945312 C 336.425781 141.351562 336.0625 139.785156 335.578125 138.246094 C 335.097656 136.707031 334.5 135.210938 333.789062 133.765625 C 333.082031 132.316406 332.265625 130.933594 331.347656 129.609375 C 330.429688 128.285156 329.414062 127.042969 328.304688 125.875 C 327.195312 124.707031 326.007812 123.628906 324.734375 122.644531 C 323.460938 121.660156 322.121094 120.777344 320.714844 120 C 319.308594 119.21875 317.851562 118.550781 316.34375 117.996094 Z M 316.34375 117.996094 " fill-opacity="1" fill-rule="nonzero"/></g><g clip-path="url(#112133f52e)"><path fill="#d3261e" d="M 308.664062 149.8125 C 328.671875 140.164062 322.800781 121.261719 322.792969 121.253906 C 320.769531 119.917969 318.621094 118.832031 316.34375 117.996094 C 309.570312 114.542969 293.621094 119.242188 286.675781 123.890625 C 281.5625 127.316406 279.964844 129.167969 279.480469 129.898438 L 279.425781 129.921875 C 277.636719 132.546875 276.277344 135.378906 275.34375 138.421875 C 274.410156 141.464844 273.949219 144.574219 273.953125 147.757812 C 273.953125 163.601562 285.671875 176.773438 300.914062 179.085938 C 297.78125 171.191406 294.476562 156.644531 308.664062 149.8125 Z M 308.664062 149.8125 " fill-opacity="1" fill-rule="nonzero"/></g><g clip-path="url(#ca5bce6255)"><path fill="#89af46" d="M 317.128906 117.421875 C 316.335938 117.640625 315.507812 117.902344 314.667969 118.195312 C 314.621094 118.207031 314.578125 118.222656 314.535156 118.242188 C 309.550781 119.980469 304.261719 122.640625 303.921875 122.8125 C 303.621094 122.964844 303.464844 123.207031 303.457031 123.546875 C 303.445312 123.882812 303.585938 124.136719 303.878906 124.308594 C 308.292969 126.878906 311.914062 132.027344 313.894531 135.277344 C 308.089844 132.253906 298.929688 130.121094 298.46875 130.015625 C 298.132812 129.9375 297.855469 130.03125 297.632812 130.292969 C 294.289062 134.253906 291.359375 144.742188 290.097656 149.789062 C 288.050781 141.890625 291.363281 130.570312 291.402344 130.441406 C 291.472656 130.203125 291.445312 129.972656 291.316406 129.757812 C 291.1875 129.542969 291 129.410156 290.753906 129.363281 C 290.023438 129.226562 289.289062 129.15625 288.546875 129.164062 C 283.625 129.164062 277.738281 131.761719 274.578125 133.359375 C 278.902344 125.960938 290.851562 120.9375 290.976562 120.878906 C 291.171875 120.796875 291.316406 120.664062 291.410156 120.476562 C 295.003906 113.378906 300.898438 110.671875 303.710938 109.746094 C 303.238281 111.347656 302.847656 113.625 302.566406 115.597656 C 302.546875 115.734375 302.558594 115.863281 302.605469 115.992188 C 302.648438 116.121094 302.71875 116.234375 302.816406 116.328125 C 302.914062 116.425781 303.027344 116.492188 303.15625 116.53125 C 303.285156 116.570312 303.417969 116.582031 303.550781 116.558594 C 307.90625 115.789062 313.429688 116.632812 317.128906 117.421875 Z M 317.128906 117.421875 " fill-opacity="1" fill-rule="nonzero"/></g><g clip-path="url(#72d90d102e)"><path fill="#e24444" d="M 329.023438 158.292969 C 324.011719 162.324219 321.160156 169.699219 320.699219 175.621094 C 323.363281 174.15625 325.765625 172.335938 327.902344 170.164062 C 333.792969 164.195312 337.035156 156.234375 337.035156 147.757812 C 337.039062 143.898438 336.355469 140.160156 334.996094 136.546875 C 335 136.582031 337.691406 151.328125 329.023438 158.292969 Z M 329.023438 158.292969 " fill-opacity="1" fill-rule="nonzero"/></g><path fill="#ffffff" d="M 313.226562 173.84375 C 313.039062 173.773438 312.90625 173.644531 312.824219 173.460938 C 312.757812 173.3125 312.761719 173.164062 312.835938 173.019531 C 312.914062 172.875 313.03125 172.789062 313.191406 172.757812 C 319.550781 171.210938 322.746094 166.652344 322.777344 166.605469 C 322.957031 166.351562 323.351562 166.292969 323.660156 166.480469 C 323.972656 166.664062 324.085938 167.023438 323.914062 167.28125 C 323.777344 167.484375 320.476562 172.21875 313.667969 173.871094 C 313.519531 173.90625 313.371094 173.898438 313.226562 173.84375 Z M 313.226562 173.84375 " fill-opacity="1" fill-rule="nonzero"/><path fill="#ffffff" d="M 301.675781 173.296875 C 301.367188 173.179688 301.054688 173.042969 300.738281 172.90625 C 300.417969 172.769531 300.230469 172.410156 300.367188 172.128906 C 300.5 171.847656 300.882812 171.746094 301.210938 171.890625 C 306.070312 174.054688 309.433594 173.148438 309.46875 173.136719 C 309.636719 173.09375 309.800781 173.105469 309.960938 173.179688 C 310.121094 173.25 310.242188 173.363281 310.324219 173.515625 C 310.398438 173.664062 310.398438 173.808594 310.332031 173.957031 C 310.261719 174.105469 310.148438 174.199219 309.992188 174.234375 C 309.84375 174.28125 306.523438 175.175781 301.675781 173.296875 Z M 301.675781 173.296875 " fill-opacity="1" fill-rule="nonzero"/><g fill="#fdb811" fill-opacity="0.4"><g transform="translate(107.622185, 177.13058)"><g><path d="M 13.828125 -27.65625 C 15.753906 -27.65625 17.566406 -27.289062 19.265625 -26.5625 C 20.972656 -25.832031 22.46875 -24.828125 23.75 -23.546875 C 25.03125 -22.265625 26.035156 -20.78125 26.765625 -19.09375 C 27.492188 -17.40625 27.859375 -15.597656 27.859375 -13.671875 C 27.859375 -11.753906 27.492188 -9.945312 26.765625 -8.25 C 26.035156 -6.5625 25.03125 -5.082031 23.75 -3.8125 C 22.46875 -2.550781 20.972656 -1.5625 19.265625 -0.84375 C 17.566406 -0.125 15.753906 0.234375 13.828125 0.234375 C 11.929688 0.234375 10.140625 -0.125 8.453125 -0.84375 C 6.765625 -1.5625 5.28125 -2.550781 4 -3.8125 C 2.71875 -5.082031 1.710938 -6.5625 0.984375 -8.25 C 0.253906 -9.945312 -0.109375 -11.753906 -0.109375 -13.671875 C -0.109375 -15.597656 0.253906 -17.40625 0.984375 -19.09375 C 1.710938 -20.78125 2.71875 -22.265625 4 -23.546875 C 5.28125 -24.828125 6.765625 -25.832031 8.453125 -26.5625 C 10.140625 -27.289062 11.929688 -27.65625 13.828125 -27.65625 Z M 13.828125 -15.140625 C 13.492188 -15.140625 13.179688 -15.003906 12.890625 -14.734375 C 12.597656 -14.460938 12.453125 -14.109375 12.453125 -13.671875 C 12.453125 -13.265625 12.597656 -12.914062 12.890625 -12.625 C 13.179688 -12.332031 13.492188 -12.1875 13.828125 -12.1875 C 14.242188 -12.1875 14.597656 -12.332031 14.890625 -12.625 C 15.179688 -12.914062 15.328125 -13.265625 15.328125 -13.671875 C 15.328125 -14.109375 15.179688 -14.460938 14.890625 -14.734375 C 14.597656 -15.003906 14.242188 -15.140625 13.828125 -15.140625 Z M 13.828125 -15.140625 "/></g></g></g><g fill="#fdb811" fill-opacity="0.4"><g transform="translate(136.509554, 177.13058)"><g><path d="M 20.140625 -8.1875 C 19.335938 -7.238281 18.472656 -6.40625 17.546875 -5.6875 C 16.628906 -4.96875 15.722656 -4.625 14.828125 -4.65625 C 13.960938 -4.65625 13.085938 -5.003906 12.203125 -5.703125 C 11.316406 -6.410156 10.460938 -7.238281 9.640625 -8.1875 L 8.453125 -9.640625 C 8.378906 -9.722656 8.296875 -9.742188 8.203125 -9.703125 C 8.109375 -9.660156 8.101562 -9.585938 8.1875 -9.484375 L 11.90625 -4.375 C 11.726562 -2.8125 11.078125 -1.648438 9.953125 -0.890625 C 8.828125 -0.140625 7.519531 0.234375 6.03125 0.234375 C 5.007812 0.234375 4.039062 -0.0390625 3.125 -0.59375 C 2.21875 -1.144531 1.472656 -1.875 0.890625 -2.78125 C 0.316406 -3.695312 0.03125 -4.703125 0.03125 -5.796875 L 0.03125 -20.9375 C 0.03125 -22.0625 0.285156 -23.050781 0.796875 -23.90625 C 1.316406 -24.769531 1.984375 -25.460938 2.796875 -25.984375 C 3.617188 -26.515625 4.515625 -26.835938 5.484375 -26.953125 C 6.460938 -27.066406 7.425781 -26.9375 8.375 -26.5625 C 9.320312 -26.195312 10.15625 -25.550781 10.875 -24.625 L 14.875 -19.484375 L 18.984375 -24.625 C 19.722656 -25.550781 20.5625 -26.195312 21.5 -26.5625 C 22.4375 -26.9375 23.390625 -27.066406 24.359375 -26.953125 C 25.328125 -26.835938 26.222656 -26.515625 27.046875 -25.984375 C 27.867188 -25.460938 28.535156 -24.769531 29.046875 -23.90625 C 29.554688 -23.050781 29.8125 -22.0625 29.8125 -20.9375 L 29.8125 -5.796875 C 29.8125 -4.703125 29.523438 -3.695312 28.953125 -2.78125 C 28.378906 -1.875 27.632812 -1.144531 26.71875 -0.59375 C 25.8125 -0.0390625 24.847656 0.234375 23.828125 0.234375 C 22.335938 0.234375 21.03125 -0.140625 19.90625 -0.890625 C 18.78125 -1.648438 18.125 -2.8125 17.9375 -4.375 L 21.671875 -9.484375 C 21.722656 -9.566406 21.707031 -9.632812 21.625 -9.6875 C 21.550781 -9.738281 21.476562 -9.722656 21.40625 -9.640625 Z M 20.140625 -8.1875 "/></g></g></g><g fill="#fdb811" fill-opacity="0.4"><g transform="translate(167.47129, 177.13058)"><g><path d="M 13.828125 -27.65625 C 15.753906 -27.65625 17.566406 -27.289062 19.265625 -26.5625 C 20.972656 -25.832031 22.46875 -24.828125 23.75 -23.546875 C 25.03125 -22.265625 26.035156 -20.78125 26.765625 -19.09375 C 27.492188 -17.40625 27.859375 -15.597656 27.859375 -13.671875 C 27.859375 -11.753906 27.492188 -9.945312 26.765625 -8.25 C 26.035156 -6.5625 25.03125 -5.082031 23.75 -3.8125 C 22.46875 -2.550781 20.972656 -1.5625 19.265625 -0.84375 C 17.566406 -0.125 15.753906 0.234375 13.828125 0.234375 C 11.929688 0.234375 10.140625 -0.125 8.453125 -0.84375 C 6.765625 -1.5625 5.28125 -2.550781 4 -3.8125 C 2.71875 -5.082031 1.710938 -6.5625 0.984375 -8.25 C 0.253906 -9.945312 -0.109375 -11.753906 -0.109375 -13.671875 C -0.109375 -15.597656 0.253906 -17.40625 0.984375 -19.09375 C 1.710938 -20.78125 2.71875 -22.265625 4 -23.546875 C 5.28125 -24.828125 6.765625 -25.832031 8.453125 -26.5625 C 10.140625 -27.289062 11.929688 -27.65625 13.828125 -27.65625 Z M 13.828125 -15.140625 C 13.492188 -15.140625 13.179688 -15.003906 12.890625 -14.734375 C 12.597656 -14.460938 12.453125 -14.109375 12.453125 -13.671875 C 12.453125 -13.265625 12.597656 -12.914062 12.890625 -12.625 C 13.179688 -12.332031 13.492188 -12.1875 13.828125 -12.1875 C 14.242188 -12.1875 14.597656 -12.332031 14.890625 -12.625 C 15.179688 -12.914062 15.328125 -13.265625 15.328125 -13.671875 C 15.328125 -14.109375 15.179688 -14.460938 14.890625 -14.734375 C 14.597656 -15.003906 14.242188 -15.140625 13.828125 -15.140625 Z M 13.828125 -15.140625 "/></g></g></g><g fill="#fdb811" fill-opacity="0.4"><g transform="translate(196.35866, 177.13058)"><g><path d="M 6.21875 -0.03125 C 5.070312 -0.03125 4.03125 -0.300781 3.09375 -0.84375 C 2.15625 -1.382812 1.40625 -2.109375 0.84375 -3.015625 C 0.28125 -3.921875 0 -4.925781 0 -6.03125 L 0 -21.203125 C 0 -22.335938 0.265625 -23.363281 0.796875 -24.28125 C 1.335938 -25.207031 2.066406 -25.953125 2.984375 -26.515625 C 3.910156 -27.078125 4.953125 -27.359375 6.109375 -27.359375 L 12.03125 -27.359375 C 13.894531 -27.359375 15.640625 -27.003906 17.265625 -26.296875 C 18.890625 -25.597656 20.316406 -24.617188 21.546875 -23.359375 C 22.785156 -22.109375 23.75 -20.65625 24.4375 -19 C 25.125 -17.34375 25.46875 -15.582031 25.46875 -13.71875 C 25.46875 -11.820312 25.109375 -10.046875 24.390625 -8.390625 C 23.679688 -6.742188 22.695312 -5.289062 21.4375 -4.03125 C 20.1875 -2.78125 18.734375 -1.800781 17.078125 -1.09375 C 15.421875 -0.382812 13.644531 -0.03125 11.75 -0.03125 Z M 12.453125 -12.296875 C 12.890625 -12.296875 13.25 -12.429688 13.53125 -12.703125 C 13.8125 -12.972656 13.953125 -13.296875 13.953125 -13.671875 C 13.953125 -14.085938 13.8125 -14.441406 13.53125 -14.734375 C 13.25 -15.023438 12.890625 -15.171875 12.453125 -15.171875 L 11.640625 -15.171875 L 11.640625 -12.296875 Z M 12.453125 -12.296875 "/></g></g></g><g fill="#fdb811" fill-opacity="0.4"><g transform="translate(222.979607, 177.13058)"><g><path d="M 13.828125 -27.65625 C 15.753906 -27.65625 17.566406 -27.289062 19.265625 -26.5625 C 20.972656 -25.832031 22.46875 -24.828125 23.75 -23.546875 C 25.03125 -22.265625 26.035156 -20.78125 26.765625 -19.09375 C 27.492188 -17.40625 27.859375 -15.597656 27.859375 -13.671875 C 27.859375 -11.753906 27.492188 -9.945312 26.765625 -8.25 C 26.035156 -6.5625 25.03125 -5.082031 23.75 -3.8125 C 22.46875 -2.550781 20.972656 -1.5625 19.265625 -0.84375 C 17.566406 -0.125 15.753906 0.234375 13.828125 0.234375 C 11.929688 0.234375 10.140625 -0.125 8.453125 -0.84375 C 6.765625 -1.5625 5.28125 -2.550781 4 -3.8125 C 2.71875 -5.082031 1.710938 -6.5625 0.984375 -8.25 C 0.253906 -9.945312 -0.109375 -11.753906 -0.109375 -13.671875 C -0.109375 -15.597656 0.253906 -17.40625 0.984375 -19.09375 C 1.710938 -20.78125 2.71875 -22.265625 4 -23.546875 C 5.28125 -24.828125 6.765625 -25.832031 8.453125 -26.5625 C 10.140625 -27.289062 11.929688 -27.65625 13.828125 -27.65625 Z M 13.828125 -15.140625 C 13.492188 -15.140625 13.179688 -15.003906 12.890625 -14.734375 C 12.597656 -14.460938 12.453125 -14.109375 12.453125 -13.671875 C 12.453125 -13.265625 12.597656 -12.914062 12.890625 -12.625 C 13.179688 -12.332031 13.492188 -12.1875 13.828125 -12.1875 C 14.242188 -12.1875 14.597656 -12.332031 14.890625 -12.625 C 15.179688 -12.914062 15.328125 -13.265625 15.328125 -13.671875 C 15.328125 -14.109375 15.179688 -14.460938 14.890625 -14.734375 C 14.597656 -15.003906 14.242188 -15.140625 13.828125 -15.140625 Z M 13.828125 -15.140625 "/></g></g></g><g fill="#fdb811" fill-opacity="0.4"><g transform="translate(251.866976, 177.13058)"><g><path d="M 6.078125 0.078125 C 4.972656 0.078125 3.957031 -0.203125 3.03125 -0.765625 C 2.113281 -1.328125 1.375 -2.082031 0.8125 -3.03125 C 0.25 -3.976562 -0.03125 -5.015625 -0.03125 -6.140625 L -0.03125 -21.203125 C -0.03125 -22.335938 0.25 -23.363281 0.8125 -24.28125 C 1.375 -25.207031 2.128906 -25.9375 3.078125 -26.46875 C 4.023438 -27.007812 5.0625 -27.28125 6.1875 -27.28125 L 14.796875 -27.28125 C 16.304688 -27.28125 17.71875 -27 19.03125 -26.4375 C 20.351562 -25.875 21.515625 -25.09375 22.515625 -24.09375 C 23.515625 -23.09375 24.296875 -21.929688 24.859375 -20.609375 C 25.421875 -19.296875 25.703125 -17.882812 25.703125 -16.375 C 25.703125 -14.5 25.285156 -12.765625 24.453125 -11.171875 C 23.617188 -9.585938 22.472656 -8.285156 21.015625 -7.265625 C 20.910156 -7.210938 20.894531 -7.117188 20.96875 -6.984375 C 21.050781 -6.859375 21.144531 -6.820312 21.25 -6.875 C 21.882812 -7.15625 22.492188 -7.503906 23.078125 -7.921875 C 23.671875 -8.347656 24.210938 -8.84375 24.703125 -9.40625 C 25.578125 -8.175781 25.941406 -6.832031 25.796875 -5.375 C 25.660156 -3.914062 25.039062 -2.632812 23.9375 -1.53125 C 23.21875 -0.820312 22.328125 -0.3125 21.265625 0 C 20.203125 0.3125 19.148438 0.332031 18.109375 0.0625 C 17.078125 -0.207031 16.210938 -0.804688 15.515625 -1.734375 L 12.21875 -5.640625 C 12.164062 -4.566406 11.859375 -3.597656 11.296875 -2.734375 C 10.734375 -1.878906 10.003906 -1.195312 9.109375 -0.6875 C 8.210938 -0.175781 7.203125 0.078125 6.078125 0.078125 Z M 12.90625 -17.59375 C 12.65625 -17.59375 12.425781 -17.53125 12.21875 -17.40625 L 12.21875 -14.796875 C 12.320312 -14.742188 12.421875 -14.707031 12.515625 -14.6875 C 12.617188 -14.675781 12.75 -14.671875 12.90625 -14.671875 C 13.320312 -14.671875 13.65625 -14.804688 13.90625 -15.078125 C 14.164062 -15.347656 14.296875 -15.6875 14.296875 -16.09375 C 14.296875 -16.507812 14.164062 -16.863281 13.90625 -17.15625 C 13.65625 -17.445312 13.320312 -17.59375 12.90625 -17.59375 Z M 12.90625 -17.59375 "/></g></g></g><g fill="#db3131" fill-opacity="1"><g transform="translate(107.622185, 177.13058)"><g><path d="M 13.828125 -27.65625 C 15.753906 -27.65625 17.566406 -27.289062 19.265625 -26.5625 C 20.972656 -25.832031 22.46875 -24.828125 23.75 -23.546875 C 25.03125 -22.265625 26.035156 -20.78125 26.765625 -19.09375 C 27.492188 -17.40625 27.859375 -15.597656 27.859375 -13.671875 C 27.859375 -11.753906 27.492188 -9.945312 26.765625 -8.25 C 26.035156 -6.5625 25.03125 -5.082031 23.75 -3.8125 C 22.46875 -2.550781 20.972656 -1.5625 19.265625 -0.84375 C 17.566406 -0.125 15.753906 0.234375 13.828125 0.234375 C 11.929688 0.234375 10.140625 -0.125 8.453125 -0.84375 C 6.765625 -1.5625 5.28125 -2.550781 4 -3.8125 C 2.71875 -5.082031 1.710938 -6.5625 0.984375 -8.25 C 0.253906 -9.945312 -0.109375 -11.753906 -0.109375 -13.671875 C -0.109375 -15.597656 0.253906 -17.40625 0.984375 -19.09375 C 1.710938 -20.78125 2.71875 -22.265625 4 -23.546875 C 5.28125 -24.828125 6.765625 -25.832031 8.453125 -26.5625 C 10.140625 -27.289062 11.929688 -27.65625 13.828125 -27.65625 Z M 13.828125 -15.140625 C 13.492188 -15.140625 13.179688 -15.003906 12.890625 -14.734375 C 12.597656 -14.460938 12.453125 -14.109375 12.453125 -13.671875 C 12.453125 -13.265625 12.597656 -12.914062 12.890625 -12.625 C 13.179688 -12.332031 13.492188 -12.1875 13.828125 -12.1875 C 14.242188 -12.1875 14.597656 -12.332031 14.890625 -12.625 C 15.179688 -12.914062 15.328125 -13.265625 15.328125 -13.671875 C 15.328125 -14.109375 15.179688 -14.460938 14.890625 -14.734375 C 14.597656 -15.003906 14.242188 -15.140625 13.828125 -15.140625 Z M 13.828125 -15.140625 "/></g></g></g><g fill="#db3131" fill-opacity="1"><g transform="translate(136.509554, 177.13058)"><g><path d="M 20.140625 -8.1875 C 19.335938 -7.238281 18.472656 -6.40625 17.546875 -5.6875 C 16.628906 -4.96875 15.722656 -4.625 14.828125 -4.65625 C 13.960938 -4.65625 13.085938 -5.003906 12.203125 -5.703125 C 11.316406 -6.410156 10.460938 -7.238281 9.640625 -8.1875 L 8.453125 -9.640625 C 8.378906 -9.722656 8.296875 -9.742188 8.203125 -9.703125 C 8.109375 -9.660156 8.101562 -9.585938 8.1875 -9.484375 L 11.90625 -4.375 C 11.726562 -2.8125 11.078125 -1.648438 9.953125 -0.890625 C 8.828125 -0.140625 7.519531 0.234375 6.03125 0.234375 C 5.007812 0.234375 4.039062 -0.0390625 3.125 -0.59375 C 2.21875 -1.144531 1.472656 -1.875 0.890625 -2.78125 C 0.316406 -3.695312 0.03125 -4.703125 0.03125 -5.796875 L 0.03125 -20.9375 C 0.03125 -22.0625 0.285156 -23.050781 0.796875 -23.90625 C 1.316406 -24.769531 1.984375 -25.460938 2.796875 -25.984375 C 3.617188 -26.515625 4.515625 -26.835938 5.484375 -26.953125 C 6.460938 -27.066406 7.425781 -26.9375 8.375 -26.5625 C 9.320312 -26.195312 10.15625 -25.550781 10.875 -24.625 L 14.875 -19.484375 L 18.984375 -24.625 C 19.722656 -25.550781 20.5625 -26.195312 21.5 -26.5625 C 22.4375 -26.9375 23.390625 -27.066406 24.359375 -26.953125 C 25.328125 -26.835938 26.222656 -26.515625 27.046875 -25.984375 C 27.867188 -25.460938 28.535156 -24.769531 29.046875 -23.90625 C 29.554688 -23.050781 29.8125 -22.0625 29.8125 -20.9375 L 29.8125 -5.796875 C 29.8125 -4.703125 29.523438 -3.695312 28.953125 -2.78125 C 28.378906 -1.875 27.632812 -1.144531 26.71875 -0.59375 C 25.8125 -0.0390625 24.847656 0.234375 23.828125 0.234375 C 22.335938 0.234375 21.03125 -0.140625 19.90625 -0.890625 C 18.78125 -1.648438 18.125 -2.8125 17.9375 -4.375 L 21.671875 -9.484375 C 21.722656 -9.566406 21.707031 -9.632812 21.625 -9.6875 C 21.550781 -9.738281 21.476562 -9.722656 21.40625 -9.640625 Z M 20.140625 -8.1875 "/></g></g></g><g fill="#db3131" fill-opacity="1"><g transform="translate(167.47129, 177.13058)"><g><path d="M 13.828125 -27.65625 C 15.753906 -27.65625 17.566406 -27.289062 19.265625 -26.5625 C 20.972656 -25.832031 22.46875 -24.828125 23.75 -23.546875 C 25.03125 -22.265625 26.035156 -20.78125 26.765625 -19.09375 C 27.492188 -17.40625 27.859375 -15.597656 27.859375 -13.671875 C 27.859375 -11.753906 27.492188 -9.945312 26.765625 -8.25 C 26.035156 -6.5625 25.03125 -5.082031 23.75 -3.8125 C 22.46875 -2.550781 20.972656 -1.5625 19.265625 -0.84375 C 17.566406 -0.125 15.753906 0.234375 13.828125 0.234375 C 11.929688 0.234375 10.140625 -0.125 8.453125 -0.84375 C 6.765625 -1.5625 5.28125 -2.550781 4 -3.8125 C 2.71875 -5.082031 1.710938 -6.5625 0.984375 -8.25 C 0.253906 -9.945312 -0.109375 -11.753906 -0.109375 -13.671875 C -0.109375 -15.597656 0.253906 -17.40625 0.984375 -19.09375 C 1.710938 -20.78125 2.71875 -22.265625 4 -23.546875 C 5.28125 -24.828125 6.765625 -25.832031 8.453125 -26.5625 C 10.140625 -27.289062 11.929688 -27.65625 13.828125 -27.65625 Z M 13.828125 -15.140625 C 13.492188 -15.140625 13.179688 -15.003906 12.890625 -14.734375 C 12.597656 -14.460938 12.453125 -14.109375 12.453125 -13.671875 C 12.453125 -13.265625 12.597656 -12.914062 12.890625 -12.625 C 13.179688 -12.332031 13.492188 -12.1875 13.828125 -12.1875 C 14.242188 -12.1875 14.597656 -12.332031 14.890625 -12.625 C 15.179688 -12.914062 15.328125 -13.265625 15.328125 -13.671875 C 15.328125 -14.109375 15.179688 -14.460938 14.890625 -14.734375 C 14.597656 -15.003906 14.242188 -15.140625 13.828125 -15.140625 Z M 13.828125 -15.140625 "/></g></g></g><g fill="#db3131" fill-opacity="1"><g transform="translate(196.35866, 177.13058)"><g><path d="M 6.21875 -0.03125 C 5.070312 -0.03125 4.03125 -0.300781 3.09375 -0.84375 C 2.15625 -1.382812 1.40625 -2.109375 0.84375 -3.015625 C 0.28125 -3.921875 0 -4.925781 0 -6.03125 L 0 -21.203125 C 0 -22.335938 0.265625 -23.363281 0.796875 -24.28125 C 1.335938 -25.207031 2.066406 -25.953125 2.984375 -26.515625 C 3.910156 -27.078125 4.953125 -27.359375 6.109375 -27.359375 L 12.03125 -27.359375 C 13.894531 -27.359375 15.640625 -27.003906 17.265625 -26.296875 C 18.890625 -25.597656 20.316406 -24.617188 21.546875 -23.359375 C 22.785156 -22.109375 23.75 -20.65625 24.4375 -19 C 25.125 -17.34375 25.46875 -15.582031 25.46875 -13.71875 C 25.46875 -11.820312 25.109375 -10.046875 24.390625 -8.390625 C 23.679688 -6.742188 22.695312 -5.289062 21.4375 -4.03125 C 20.1875 -2.78125 18.734375 -1.800781 17.078125 -1.09375 C 15.421875 -0.382812 13.644531 -0.03125 11.75 -0.03125 Z M 12.453125 -12.296875 C 12.890625 -12.296875 13.25 -12.429688 13.53125 -12.703125 C 13.8125 -12.972656 13.953125 -13.296875 13.953125 -13.671875 C 13.953125 -14.085938 13.8125 -14.441406 13.53125 -14.734375 C 13.25 -15.023438 12.890625 -15.171875 12.453125 -15.171875 L 11.640625 -15.171875 L 11.640625 -12.296875 Z M 12.453125 -12.296875 "/></g></g></g><g fill="#db3131" fill-opacity="1"><g transform="translate(222.979607, 177.13058)"><g><path d="M 13.828125 -27.65625 C 15.753906 -27.65625 17.566406 -27.289062 19.265625 -26.5625 C 20.972656 -25.832031 22.46875 -24.828125 23.75 -23.546875 C 25.03125 -22.265625 26.035156 -20.78125 26.765625 -19.09375 C 27.492188 -17.40625 27.859375 -15.597656 27.859375 -13.671875 C 27.859375 -11.753906 27.492188 -9.945312 26.765625 -8.25 C 26.035156 -6.5625 25.03125 -5.082031 23.75 -3.8125 C 22.46875 -2.550781 20.972656 -1.5625 19.265625 -0.84375 C 17.566406 -0.125 15.753906 0.234375 13.828125 0.234375 C 11.929688 0.234375 10.140625 -0.125 8.453125 -0.84375 C 6.765625 -1.5625 5.28125 -2.550781 4 -3.8125 C 2.71875 -5.082031 1.710938 -6.5625 0.984375 -8.25 C 0.253906 -9.945312 -0.109375 -11.753906 -0.109375 -13.671875 C -0.109375 -15.597656 0.253906 -17.40625 0.984375 -19.09375 C 1.710938 -20.78125 2.71875 -22.265625 4 -23.546875 C 5.28125 -24.828125 6.765625 -25.832031 8.453125 -26.5625 C 10.140625 -27.289062 11.929688 -27.65625 13.828125 -27.65625 Z M 13.828125 -15.140625 C 13.492188 -15.140625 13.179688 -15.003906 12.890625 -14.734375 C 12.597656 -14.460938 12.453125 -14.109375 12.453125 -13.671875 C 12.453125 -13.265625 12.597656 -12.914062 12.890625 -12.625 C 13.179688 -12.332031 13.492188 -12.1875 13.828125 -12.1875 C 14.242188 -12.1875 14.597656 -12.332031 14.890625 -12.625 C 15.179688 -12.914062 15.328125 -13.265625 15.328125 -13.671875 C 15.328125 -14.109375 15.179688 -14.460938 14.890625 -14.734375 C 14.597656 -15.003906 14.242188 -15.140625 13.828125 -15.140625 Z M 13.828125 -15.140625 "/></g></g></g><g fill="#db3131" fill-opacity="1"><g transform="translate(251.866976, 177.13058)"><g><path d="M 6.078125 0.078125 C 4.972656 0.078125 3.957031 -0.203125 3.03125 -0.765625 C 2.113281 -1.328125 1.375 -2.082031 0.8125 -3.03125 C 0.25 -3.976562 -0.03125 -5.015625 -0.03125 -6.140625 L -0.03125 -21.203125 C -0.03125 -22.335938 0.25 -23.363281 0.8125 -24.28125 C 1.375 -25.207031 2.128906 -25.9375 3.078125 -26.46875 C 4.023438 -27.007812 5.0625 -27.28125 6.1875 -27.28125 L 14.796875 -27.28125 C 16.304688 -27.28125 17.71875 -27 19.03125 -26.4375 C 20.351562 -25.875 21.515625 -25.09375 22.515625 -24.09375 C 23.515625 -23.09375 24.296875 -21.929688 24.859375 -20.609375 C 25.421875 -19.296875 25.703125 -17.882812 25.703125 -16.375 C 25.703125 -14.5 25.285156 -12.765625 24.453125 -11.171875 C 23.617188 -9.585938 22.472656 -8.285156 21.015625 -7.265625 C 20.910156 -7.210938 20.894531 -7.117188 20.96875 -6.984375 C 21.050781 -6.859375 21.144531 -6.820312 21.25 -6.875 C 21.882812 -7.15625 22.492188 -7.503906 23.078125 -7.921875 C 23.671875 -8.347656 24.210938 -8.84375 24.703125 -9.40625 C 25.578125 -8.175781 25.941406 -6.832031 25.796875 -5.375 C 25.660156 -3.914062 25.039062 -2.632812 23.9375 -1.53125 C 23.21875 -0.820312 22.328125 -0.3125 21.265625 0 C 20.203125 0.3125 19.148438 0.332031 18.109375 0.0625 C 17.078125 -0.207031 16.210938 -0.804688 15.515625 -1.734375 L 12.21875 -5.640625 C 12.164062 -4.566406 11.859375 -3.597656 11.296875 -2.734375 C 10.734375 -1.878906 10.003906 -1.195312 9.109375 -0.6875 C 8.210938 -0.175781 7.203125 0.078125 6.078125 0.078125 Z M 12.90625 -17.59375 C 12.65625 -17.59375 12.425781 -17.53125 12.21875 -17.40625 L 12.21875 -14.796875 C 12.320312 -14.742188 12.421875 -14.707031 12.515625 -14.6875 C 12.617188 -14.675781 12.75 -14.671875 12.90625 -14.671875 C 13.320312 -14.671875 13.65625 -14.804688 13.90625 -15.078125 C 14.164062 -15.347656 14.296875 -15.6875 14.296875 -16.09375 C 14.296875 -16.507812 14.164062 -16.863281 13.90625 -17.15625 C 13.65625 -17.445312 13.320312 -17.59375 12.90625 -17.59375 Z M 12.90625 -17.59375 "/></g></g></g><g fill="#fdb811" fill-opacity="0.4"><g transform="translate(49.781312, 177.203249)"><g><path d="M 22.421875 0.953125 C 18.273438 0.953125 14.488281 -0.0351562 11.0625 -2.015625 C 7.644531 -4.003906 4.945312 -6.664062 2.96875 -10 C 0.988281 -13.332031 0 -17.023438 0 -21.078125 L 0 -74.015625 C 0 -78.066406 0.988281 -81.738281 2.96875 -85.03125 C 4.945312 -88.320312 7.644531 -90.957031 11.0625 -92.9375 C 14.488281 -94.914062 18.273438 -95.90625 22.421875 -95.90625 L 49.03125 -95.90625 C 54.4375 -95.90625 59.457031 -94.914062 64.09375 -92.9375 C 68.726562 -90.957031 72.78125 -88.207031 76.25 -84.6875 C 79.71875 -81.175781 82.441406 -77.078125 84.421875 -72.390625 C 86.398438 -67.710938 87.390625 -62.71875 87.390625 -57.40625 C 87.390625 -52 86.351562 -46.953125 84.28125 -42.265625 C 82.21875 -37.585938 79.382812 -33.46875 75.78125 -29.90625 C 72.175781 -26.351562 67.988281 -23.609375 63.21875 -21.671875 C 58.445312 -19.742188 53.359375 -18.867188 47.953125 -19.046875 L 45.515625 -32.28125 C 45.335938 -32.820312 45.066406 -33.046875 44.703125 -32.953125 C 44.347656 -32.867188 44.171875 -32.554688 44.171875 -32.015625 L 44.171875 -21.078125 C 44.171875 -17.109375 43.179688 -13.457031 41.203125 -10.125 C 39.222656 -6.800781 36.585938 -4.125 33.296875 -2.09375 C 30.003906 -0.0625 26.378906 0.953125 22.421875 0.953125 Z M 46.203125 -62.40625 C 45.835938 -62.40625 45.492188 -62.40625 45.171875 -62.40625 C 44.859375 -62.40625 44.523438 -62.316406 44.171875 -62.140625 L 44.171875 -52.8125 C 44.890625 -52.363281 45.566406 -52.140625 46.203125 -52.140625 C 47.640625 -52.140625 48.875 -52.65625 49.90625 -53.6875 C 50.945312 -54.726562 51.46875 -55.96875 51.46875 -57.40625 C 51.46875 -58.84375 50.945312 -60.035156 49.90625 -60.984375 C 48.875 -61.929688 47.640625 -62.40625 46.203125 -62.40625 Z M 46.203125 -62.40625 "/></g></g></g><g fill="#db3131" fill-opacity="1"><g transform="translate(49.781312, 177.203249)"><g><path d="M 22.421875 0.953125 C 18.273438 0.953125 14.488281 -0.0351562 11.0625 -2.015625 C 7.644531 -4.003906 4.945312 -6.664062 2.96875 -10 C 0.988281 -13.332031 0 -17.023438 0 -21.078125 L 0 -74.015625 C 0 -78.066406 0.988281 -81.738281 2.96875 -85.03125 C 4.945312 -88.320312 7.644531 -90.957031 11.0625 -92.9375 C 14.488281 -94.914062 18.273438 -95.90625 22.421875 -95.90625 L 49.03125 -95.90625 C 54.4375 -95.90625 59.457031 -94.914062 64.09375 -92.9375 C 68.726562 -90.957031 72.78125 -88.207031 76.25 -84.6875 C 79.71875 -81.175781 82.441406 -77.078125 84.421875 -72.390625 C 86.398438 -67.710938 87.390625 -62.71875 87.390625 -57.40625 C 87.390625 -52 86.351562 -46.953125 84.28125 -42.265625 C 82.21875 -37.585938 79.382812 -33.46875 75.78125 -29.90625 C 72.175781 -26.351562 67.988281 -23.609375 63.21875 -21.671875 C 58.445312 -19.742188 53.359375 -18.867188 47.953125 -19.046875 L 45.515625 -32.28125 C 45.335938 -32.820312 45.066406 -33.046875 44.703125 -32.953125 C 44.347656 -32.867188 44.171875 -32.554688 44.171875 -32.015625 L 44.171875 -21.078125 C 44.171875 -17.109375 43.179688 -13.457031 41.203125 -10.125 C 39.222656 -6.800781 36.585938 -4.125 33.296875 -2.09375 C 30.003906 -0.0625 26.378906 0.953125 22.421875 0.953125 Z M 46.203125 -62.40625 C 45.835938 -62.40625 45.492188 -62.40625 45.171875 -62.40625 C 44.859375 -62.40625 44.523438 -62.316406 44.171875 -62.140625 L 44.171875 -52.8125 C 44.890625 -52.363281 45.566406 -52.140625 46.203125 -52.140625 C 47.640625 -52.140625 48.875 -52.65625 49.90625 -53.6875 C 50.945312 -54.726562 51.46875 -55.96875 51.46875 -57.40625 C 51.46875 -58.84375 50.945312 -60.035156 49.90625 -60.984375 C 48.875 -61.929688 47.640625 -62.40625 46.203125 -62.40625 Z M 46.203125 -62.40625 "/></g></g></g></svg>