<svg xmlns="http://www.w3.org/2000/svg" xmlns:xlink="http://www.w3.org/1999/xlink" width="500" zoomAndPan="magnify" viewBox="0 0 375 374.999991" height="500" preserveAspectRatio="xMidYMid meet" version="1.0"><defs><clipPath id="dbcda36359"><path d="M 15.339844 38 L 357 38 L 357 375 L 15.339844 375 Z M 15.339844 38 " clip-rule="nonzero"/></clipPath><clipPath id="6bd8f19752"><path d="M 15.339844 38 L 284 38 L 284 373 L 15.339844 373 Z M 15.339844 38 " clip-rule="nonzero"/></clipPath></defs><rect x="-37.5" width="450" fill="#ffffff" y="-37.499999" height="449.999989" fill-opacity="1"/><rect x="-37.5" width="450" fill="#ffffff" y="-37.499999" height="449.999989" fill-opacity="1"/><g clip-path="url(#dbcda36359)"><path fill="#db3131" d="M 244.320312 44.425781 C 207.726562 25.859375 121.601562 51.125 84.109375 76.121094 C 56.488281 94.542969 47.871094 104.480469 45.25 108.425781 L 44.964844 108.53125 C 40.160156 115.550781 35.910156 122.890625 32.210938 130.550781 C 28.515625 138.214844 25.414062 146.109375 22.910156 154.234375 C 20.40625 162.363281 18.523438 170.636719 17.265625 179.046875 C 16.007812 187.460938 15.390625 195.917969 15.410156 204.425781 C 15.410156 298.347656 92.324219 374.773438 186.875 374.773438 C 192.433594 374.792969 197.976562 374.539062 203.511719 374.003906 C 209.042969 373.472656 214.535156 372.667969 219.988281 371.585938 C 225.441406 370.507812 230.828125 369.160156 236.148438 367.542969 C 241.464844 365.929688 246.691406 364.050781 251.824219 361.917969 C 256.957031 359.78125 261.96875 357.394531 266.863281 354.757812 C 271.757812 352.125 276.507812 349.25 281.117188 346.144531 C 285.726562 343.035156 290.167969 339.703125 294.445312 336.152344 C 298.722656 332.601562 302.8125 328.847656 306.71875 324.890625 C 338.53125 292.78125 356.046875 249.996094 356.046875 204.425781 C 356.046875 200.09375 355.878906 195.769531 355.546875 191.453125 C 355.21875 187.132812 354.722656 182.835938 354.0625 178.554688 C 353.402344 174.273438 352.582031 170.027344 351.601562 165.808594 C 350.617188 161.589844 349.476562 157.414062 348.175781 153.285156 C 346.875 149.152344 345.417969 145.078125 343.808594 141.058594 C 342.199219 137.039062 340.4375 133.085938 338.523438 129.199219 C 336.613281 125.316406 334.554688 121.507812 332.351562 117.777344 C 330.152344 114.050781 327.808594 110.410156 325.332031 106.859375 C 322.851562 103.308594 320.242188 99.859375 317.496094 96.507812 C 314.753906 93.15625 311.890625 89.914062 308.902344 86.78125 C 305.910156 83.648438 302.808594 80.632812 299.589844 77.734375 C 296.371094 74.839844 293.046875 72.070312 289.613281 69.425781 C 286.183594 66.78125 282.660156 64.273438 279.039062 61.898438 C 275.417969 59.523438 271.710938 57.289062 267.921875 55.199219 C 264.128906 53.105469 260.265625 51.160156 256.324219 49.363281 C 252.386719 47.566406 248.382812 45.921875 244.320312 44.425781 Z M 244.320312 44.425781 " fill-opacity="1" fill-rule="nonzero"/></g><g clip-path="url(#6bd8f19752)"><path fill="#d3261e" d="M 202.828125 215.457031 C 310.886719 163.601562 279.171875 61.980469 279.132812 61.9375 C 268.203125 54.757812 256.601562 48.917969 244.320312 44.425781 C 207.726562 25.859375 121.601562 51.125 84.109375 76.121094 C 56.488281 94.542969 47.871094 104.480469 45.25 108.425781 L 44.964844 108.53125 C 40.160156 115.550781 35.910156 122.890625 32.210938 130.550781 C 28.515625 138.214844 25.414062 146.109375 22.910156 154.234375 C 20.40625 162.363281 18.523438 170.636719 17.265625 179.046875 C 16.007812 187.460938 15.390625 195.917969 15.410156 204.425781 C 15.410156 289.601562 78.671875 360.398438 160.984375 372.832031 C 144.082031 330.402344 126.226562 252.199219 202.828125 215.457031 Z M 202.828125 215.457031 " fill-opacity="1" fill-rule="nonzero"/></g><path fill="#89af46" d="M 248.550781 41.347656 C 244.265625 42.527344 239.792969 43.9375 235.265625 45.496094 C 235.015625 45.5625 234.773438 45.644531 234.535156 45.75 C 207.625 55.089844 179.058594 69.402344 177.234375 70.320312 C 176.484375 70.699219 175.882812 71.242188 175.429688 71.949219 C 174.980469 72.65625 174.742188 73.429688 174.71875 74.269531 C 174.691406 75.109375 174.882812 75.894531 175.292969 76.628906 C 175.699219 77.363281 176.269531 77.941406 176.996094 78.359375 C 200.839844 92.1875 220.398438 119.859375 231.074219 137.328125 C 199.734375 121.078125 150.269531 109.609375 147.78125 109.039062 C 146.949219 108.847656 146.128906 108.886719 145.316406 109.15625 C 144.503906 109.425781 143.824219 109.886719 143.269531 110.535156 C 125.203125 131.835938 109.390625 188.214844 102.570312 215.335938 C 91.535156 172.878906 109.425781 112.023438 109.621094 111.339844 C 109.808594 110.722656 109.859375 110.089844 109.777344 109.449219 C 109.695312 108.808594 109.488281 108.214844 109.152344 107.660156 C 108.820312 107.109375 108.390625 106.648438 107.863281 106.277344 C 107.335938 105.910156 106.753906 105.664062 106.121094 105.542969 C 102.183594 104.796875 98.210938 104.433594 94.207031 104.457031 C 67.636719 104.457031 35.839844 118.425781 18.769531 127.019531 C 42.121094 87.238281 106.652344 60.242188 107.332031 59.921875 C 108.378906 59.496094 109.152344 58.78125 109.664062 57.777344 C 129.066406 19.617188 160.894531 5.058594 176.101562 0.0820312 C 173.539062 8.6875 171.433594 20.925781 169.917969 31.542969 C 169.863281 31.898438 169.855469 32.257812 169.890625 32.617188 C 169.921875 32.976562 170 33.328125 170.117188 33.667969 C 170.234375 34.011719 170.386719 34.335938 170.582031 34.640625 C 170.773438 34.945312 171 35.222656 171.261719 35.472656 C 171.519531 35.726562 171.804688 35.941406 172.113281 36.125 C 172.425781 36.308594 172.753906 36.453125 173.097656 36.5625 C 173.445312 36.667969 173.796875 36.730469 174.15625 36.753906 C 174.515625 36.777344 174.875 36.757812 175.230469 36.695312 C 198.746094 32.570312 228.582031 37.097656 248.550781 41.347656 Z M 248.550781 41.347656 " fill-opacity="1" fill-rule="nonzero"/><path fill="#e24444" d="M 312.785156 261.054688 C 285.707031 282.726562 270.308594 322.382812 267.824219 354.214844 C 282.21875 346.328125 295.1875 336.546875 306.730469 324.875 C 338.53125 292.78125 356.046875 249.996094 356.046875 204.425781 C 356.050781 194.132812 355.128906 183.921875 353.277344 173.792969 C 351.425781 163.667969 348.675781 153.789062 345.03125 144.164062 C 345.058594 144.347656 359.589844 223.621094 312.785156 261.054688 Z M 312.785156 261.054688 " fill-opacity="1" fill-rule="nonzero"/><path fill="#ffffff" d="M 227.484375 344.644531 C 226.46875 344.265625 225.742188 343.585938 225.296875 342.597656 C 225.214844 342.410156 225.152344 342.214844 225.113281 342.015625 C 225.074219 341.8125 225.058594 341.609375 225.066406 341.40625 C 225.070312 341.199219 225.101562 341 225.152344 340.800781 C 225.207031 340.601562 225.28125 340.410156 225.375 340.230469 C 225.46875 340.046875 225.585938 339.878906 225.71875 339.722656 C 225.851562 339.566406 226 339.425781 226.167969 339.304688 C 226.332031 339.183594 226.507812 339.082031 226.695312 339 C 226.882812 338.914062 227.078125 338.855469 227.28125 338.816406 C 261.636719 330.503906 278.878906 305.988281 279.058594 305.742188 C 280.011719 304.378906 282.148438 304.066406 283.824219 305.0625 C 285.5 306.054688 286.121094 307.996094 285.1875 309.375 C 284.453125 310.457031 266.628906 335.90625 229.863281 344.808594 C 229.050781 344.996094 228.261719 344.941406 227.484375 344.644531 Z M 227.484375 344.644531 " fill-opacity="1" fill-rule="nonzero"/><path fill="#ffffff" d="M 165.09375 341.714844 C 163.4375 341.078125 161.753906 340.351562 160.03125 339.613281 C 158.308594 338.878906 157.304688 336.945312 158.035156 335.429688 C 158.761719 333.917969 160.8125 333.386719 162.585938 334.15625 C 188.835938 345.792969 207 340.910156 207.175781 340.855469 C 207.621094 340.738281 208.070312 340.699219 208.527344 340.738281 C 208.988281 340.777344 209.425781 340.886719 209.847656 341.074219 C 210.265625 341.257812 210.644531 341.507812 210.980469 341.820312 C 211.316406 342.132812 211.59375 342.492188 211.808594 342.898438 C 211.898438 343.082031 211.96875 343.273438 212.015625 343.472656 C 212.066406 343.671875 212.089844 343.875 212.09375 344.078125 C 212.09375 344.285156 212.074219 344.488281 212.03125 344.6875 C 211.988281 344.886719 211.921875 345.082031 211.835938 345.265625 C 211.75 345.453125 211.644531 345.625 211.515625 345.785156 C 211.390625 345.949219 211.25 346.09375 211.089844 346.222656 C 210.933594 346.351562 210.761719 346.464844 210.578125 346.554688 C 210.394531 346.644531 210.203125 346.714844 210.003906 346.761719 C 209.207031 346.992188 191.28125 351.8125 165.09375 341.714844 Z M 165.09375 341.714844 " fill-opacity="1" fill-rule="nonzero"/></svg>